<svg width="24" height="24" viewBox="0 0 24 24" fill="none" xmlns="http://www.w3.org/2000/svg">
<path d="M5.00299 20C5.00299 21.103 5.89999 22 7.00299 22H17.003C18.106 22 19.003 21.103 19.003 20V8H21.003V6H17.003V4C17.003 2.897 16.106 2 15.003 2H9.00299C7.89999 2 7.00299 2.897 7.00299 4V6H3.00299V8H5.00299V20ZM9.00299 4H15.003V6H9.00299V4ZM8.00299 8H17.003L17.004 20H7.00299V8H8.00299Z" fill="#9095AA"/>
<path d="M9.00299 10H11.003V18H9.00299V10ZM13.003 10H15.003V18H13.003V10Z" fill="#9095AA"/>
</svg>
